<?xml version="1.0" encoding="UTF-8" standalone="no"?>
<svg
   xmlns:dc="http://purl.org/dc/elements/1.1/"
   xmlns:cc="http://creativecommons.org/ns#"
   xmlns:rdf="http://www.w3.org/1999/02/22-rdf-syntax-ns#"
   xmlns:svg="http://www.w3.org/2000/svg"
   xmlns="http://www.w3.org/2000/svg"
   xmlns:sodipodi="http://sodipodi.sourceforge.net/DTD/sodipodi-0.dtd"
   xmlns:inkscape="http://www.inkscape.org/namespaces/inkscape"
   aria-hidden="true"
   focusable="false"
   data-prefix="fas"
   data-icon="cloud-showers-heavy"
   class="svg-inline--fa fa-cloud-showers-heavy"
   role="img"
   viewBox="0 0 512 512"
   version="1.1"
   id="svg14094"
   sodipodi:docname="cloud-showers-heavy-solid.svg"
   inkscape:version="0.92.4 (5da689c313, 2019-01-14)">
  <metadata
     id="metadata14100">
    <rdf:RDF>
      <cc:Work
         rdf:about="">
        <dc:format>image/svg+xml</dc:format>
        <dc:type
           rdf:resource="http://purl.org/dc/dcmitype/StillImage" />
      </cc:Work>
    </rdf:RDF>
  </metadata>
  <defs
     id="defs14098" />
  <sodipodi:namedview
     pagecolor="#ffffff"
     bordercolor="#666666"
     borderopacity="1"
     objecttolerance="10"
     gridtolerance="10"
     guidetolerance="10"
     inkscape:pageopacity="0"
     inkscape:pageshadow="2"
     inkscape:window-width="1680"
     inkscape:window-height="987"
     id="namedview14096"
     showgrid="false"
     inkscape:zoom="0.4609375"
     inkscape:cx="-96.542373"
     inkscape:cy="256"
     inkscape:window-x="-8"
     inkscape:window-y="-8"
     inkscape:window-maximized="1"
     inkscape:current-layer="svg14094" />
  <path
     d="m 416,128 c -0.625,0 -1.125,0.25 -1.625,0.25 C 415.5,123 416,117.6 416,112 416,67.75 380.25,32 336.9,32 312.28,32 290.65,43.25 276.8,60.75 256.4,24.75 219.3,0 176,0 114.3,0 64,50.13 64,112 c 0,7.25 0.7512,14.25 2.126,21.25 C 27.76,145.8 0.0054,181.5 0.0054,224 c 0,53 42.1,96 95.1,96 h 319.1 C 469,320 512,277 512,224 512,171 469,128 416,128 Z M 198.8,353.9 c -12.17,-5.219 -26.3,0.4062 -31.52,12.59 l -47.1,112 c -5.219,12.19 0.4219,26.31 12.61,31.53 1.31,1.38 5.41,1.98 8.51,1.98 9.312,0 18.17,-5.438 22.08,-14.53 l 47.1,-112 C 216.6,373.3 210.1,359.2 198.8,353.9 Z m -117.34,0 c -12.19,-5.219 -26.3,0.4062 -31.52,12.59 l -47.1,112 c -6.116,12.21 -0.475,26.31 11.71,31.61 3.08,1.3 6.28,1.9 9.44,1.9 9.312,0 18.17,-5.438 22.08,-14.53 l 47.1,-112 C 99.29,373.3 93.64,359.2 81.46,353.9 Z m 234.64,0 c -12.19,-5.219 -26.3,0.4062 -31.52,12.59 l -47.1,112 c -5.219,12.19 0.4219,26.31 12.61,31.53 2.21,1.38 5.41,1.98 8.61,1.98 9.312,0 18.17,-5.438 22.08,-14.53 l 47.1,-112 C 333.1,373.3 328.3,359.2 316.1,353.9 Z m 117.4,0 c -12.17,-5.219 -26.28,0.4062 -31.52,12.59 l -47.1,112 c -5.219,12.19 0.4219,26.31 12.61,31.53 2.11,1.38 5.31,1.98 7.61,1.98 9.312,0 18.17,-5.438 22.08,-14.53 l 47.1,-112 C 451.3,373.3 445.6,359.2 433.5,353.9 Z"
     id="path14092"
     inkscape:connector-curvature="0" />
</svg>
