<?xml version="1.0" encoding="UTF-8" standalone="no"?>
<!-- Created with Inkscape (http://www.inkscape.org/) -->

<svg
   preserveAspectRatio="none"
   xmlns:dc="http://purl.org/dc/elements/1.1/"
   xmlns:cc="http://creativecommons.org/ns#"
   xmlns:rdf="http://www.w3.org/1999/02/22-rdf-syntax-ns#"
   xmlns:svg="http://www.w3.org/2000/svg"
   xmlns="http://www.w3.org/2000/svg"
   xmlns:sodipodi="http://sodipodi.sourceforge.net/DTD/sodipodi-0.dtd"
   xmlns:inkscape="http://www.inkscape.org/namespaces/inkscape"
   width="95.513603mm"
   height="28.602259mm"
   viewBox="0 0 95.513603 28.602259"
   version="1.1"
   id="svg9276"
   inkscape:version="0.92.4 (5da689c313, 2019-01-14)"
   sodipodi:docname="small-wave.svg">
  <defs
     id="defs9270" />
  <sodipodi:namedview
     id="base"
     pagecolor="#ffffff"
     bordercolor="#666666"
     borderopacity="1.0"
     inkscape:pageopacity="0.0"
     inkscape:pageshadow="2"
     inkscape:zoom="1.4"
     inkscape:cx="94.263061"
     inkscape:cy="64.114812"
     inkscape:document-units="mm"
     inkscape:current-layer="layer1"
     showgrid="false"
     fit-margin-top="0"
     fit-margin-left="0"
     fit-margin-right="0"
     fit-margin-bottom="0"
     inkscape:window-width="1680"
     inkscape:window-height="987"
     inkscape:window-x="-8"
     inkscape:window-y="-8"
     inkscape:window-maximized="1" />
  <metadata
     id="metadata9273">
    <rdf:RDF>
      <cc:Work
         rdf:about="">
        <dc:format>image/svg+xml</dc:format>
        <dc:type
           rdf:resource="http://purl.org/dc/dcmitype/StillImage" />
        <dc:title />
      </cc:Work>
    </rdf:RDF>
  </metadata>
  <g
     inkscape:label="Layer 1"
     inkscape:groupmode="layer"
     id="layer1"
     transform="translate(213.31037,-125.46077)">
    <path
       inkscape:connector-curvature="0"
       d="m -136.15487,125.46217 c -0.3167,0.004 -0.6264,0.016 -0.9297,0.0362 v 0 c -3.6388,0.24219 -6.3313,1.61177 -8.6253,3.11143 -3.0586,1.99955 -5.4136,4.20746 -8.3943,4.35374 -4.1832,0.2053 -7.966,-1.29084 -12.285,-3.00602 -4.3193,-1.71518 -9.1706,-3.64523 -15.4766,-4.2695 -7.9346,-0.78549 -12.3798,1.5476 -16.5194,4.10724 -4.1397,2.55964 -7.9738,5.33559 -14.7929,5.51956 v 0.13281 h -0.1323 v 18.6154 h 95.5136 v -22.34592 h -0.1302 l 0.01,-0.13074 c -2.6333,-0.15804 -4.9512,-1.41548 -7.3515,-2.74971 -2.4002,-1.33424 -4.8824,-2.74491 -7.8419,-3.16828 -1.0827,-0.15488 -2.0946,-0.21815 -3.0447,-0.20619 z"
       id="path8137"
       inkscape:export-filename="D:\Grafika 2D\Portfolio\scribble-app\png\10.png"
       inkscape:export-xdpi="96"
       inkscape:export-ydpi="96" />
  </g>
</svg>
