<?xml version="1.0" encoding="UTF-8" standalone="no"?>
<svg
   xmlns:dc="http://purl.org/dc/elements/1.1/"
   xmlns:cc="http://creativecommons.org/ns#"
   xmlns:rdf="http://www.w3.org/1999/02/22-rdf-syntax-ns#"
   xmlns:svg="http://www.w3.org/2000/svg"
   xmlns="http://www.w3.org/2000/svg"
   xmlns:sodipodi="http://sodipodi.sourceforge.net/DTD/sodipodi-0.dtd"
   xmlns:inkscape="http://www.inkscape.org/namespaces/inkscape"
   aria-hidden="true"
   focusable="false"
   data-prefix="fas"
   data-icon="file-arrow-up"
   class="svg-inline--fa fa-file-arrow-up"
   role="img"
   viewBox="0 0 384 512"
   version="1.1"
   id="svg4"
   sodipodi:docname="file-arrow-up-solid.svg"
   inkscape:version="0.92.4 (5da689c313, 2019-01-14)">
  <metadata
     id="metadata10">
    <rdf:RDF>
      <cc:Work
         rdf:about="">
        <dc:format>image/svg+xml</dc:format>
        <dc:type
           rdf:resource="http://purl.org/dc/dcmitype/StillImage" />
      </cc:Work>
    </rdf:RDF>
  </metadata>
  <defs
     id="defs8" />
  <sodipodi:namedview
     pagecolor="#ffffff"
     bordercolor="#666666"
     borderopacity="1"
     objecttolerance="10"
     gridtolerance="10"
     guidetolerance="10"
     inkscape:pageopacity="0"
     inkscape:pageshadow="2"
     inkscape:window-width="1680"
     inkscape:window-height="987"
     id="namedview6"
     showgrid="false"
     inkscape:zoom="0.4609375"
     inkscape:cx="-160.54237"
     inkscape:cy="256"
     inkscape:window-x="-8"
     inkscape:window-y="-8"
     inkscape:window-maximized="1"
     inkscape:current-layer="svg4" />
  <path
     d="M 256,0 V 128 H 384 Z M 224,128 V 0 H 48 C 21.49,0 0,21.49 0,48 v 416 c 0,26.5 21.49,48 48,48 h 288 c 26.51,0 48,-21.49 48,-48 V 160 H 256.9 C 238.3,160 224,145.7 224,128 Z m 64.1,216.1 c -3.8,5.6 -9.9,7.9 -16.1,7.9 -6.2,0 -12.28,-2.344 -16.97,-7.031 L 216,305.9 V 408 c 0,13.25 -10.75,24 -24,24 -13.25,0 -24,-10.75 -24,-24 V 305.9 l -39.03,39.03 c -9.375,9.375 -24.56,9.375 -33.94,0 -9.38,-9.375 -9.375,-24.56 0,-33.94 l 80,-80 c 9.375,-9.375 24.56,-9.375 33.94,0 l 80,80 c 9.33,9.41 9.33,24.61 -0.87,33.11 z"
     id="path2"
     inkscape:connector-curvature="0" />
</svg>
